<svg width="128" height="128" viewBox="0 0 128 128" xmlns="http://www.w3.org/2000/svg">
  <defs>
    <linearGradient id="grad1" x1="0%" y1="0%" x2="100%" y2="100%">
      <stop offset="0%" style="stop-color:#28a745;stop-opacity:1" />
      <stop offset="100%" style="stop-color:#20c997;stop-opacity:1" />
    </linearGradient>
    <linearGradient id="grad2" x1="0%" y1="0%" x2="100%" y2="100%">
      <stop offset="0%" style="stop-color:#ffffff;stop-opacity:0.3" />
      <stop offset="100%" style="stop-color:#ffffff;stop-opacity:0.1" />
    </linearGradient>
  </defs>
  
  <!-- Background circle with gradient -->
  <circle cx="64" cy="64" r="58" fill="url(#grad1)" stroke="#1e7e34" stroke-width="4"/>
  
  <!-- Highlight overlay -->
  <circle cx="64" cy="64" r="54" fill="url(#grad2)"/>
  
  <!-- Main magnifying glass -->
  <circle cx="52" cy="52" r="20" fill="none" stroke="white" stroke-width="6"/>
  <line x1="68" y1="68" x2="90" y2="90" stroke="white" stroke-width="6" stroke-linecap="round"/>
  
  <!-- Nature elements - leaves and branches -->
  <path d="M85 20 Q95 25 90 40 Q85 30 85 20" fill="white" opacity="0.9"/>
  <path d="M95 28 Q105 33 100 42 Q96 36 95 28" fill="white" opacity="0.8"/>
  <path d="M88 45 Q96 50 92 58 Q89 52 88 45" fill="white" opacity="0.7"/>
  
  <!-- Small nature dots and accents -->
  <circle cx="25" cy="95" r="3" fill="white" opacity="0.6"/>
  <circle cx="20" cy="85" r="2" fill="white" opacity="0.5"/>
  <circle cx="35" cy="105" r="2.5" fill="white" opacity="0.5"/>
  <circle cx="15" cy="75" r="1.5" fill="white" opacity="0.4"/>
  
  <!-- Additional leaf detail -->
  <path d="M30 25 Q40 30 35 40 Q32 32 30 25" fill="white" opacity="0.6"/>
  
  <!-- Subtle inner glow on magnifying glass -->
  <circle cx="52" cy="52" r="18" fill="none" stroke="rgba(255,255,255,0.3)" stroke-width="2"/>
</svg>
